# xmcd CD database file
#
# Track frame offsets:
#	183
#	10785
#	24173
#	41288
#	53413
#	59365
#	80433
#	94570
#	109420
#	129508
#	148718
#	165693
#
# Disc length: 2697 seconds
#
# Revision: 4
# Processed by: cddbd v1.5.1PL2 Copyright (c) Steve Scherf et al.
# Submitted via: CDex 1.51
#
DISCID=8c0a870c
DTITLE=Anne Clark - unstill life CD1
DYEAR=1993
DGENRE=New Age
TTITLE0=Flight Through Sunlit Clouds
TTITLE1=So Quiet Here
TTITLE2=At Midnight
TTITLE3=Lost To The World
TTITLE4=Come in
TTITLE5=fragility
TTITLE6=That We Have Been Here (Version)
TTITLE7=Longing Stilled
TTITLE8=NightShip
TTITLE9=Seize The Vivid Sky
TTITLE10=The Hounted Road
TTITLE11=I Of The Storm
EXTD=YEAR: 1993
EXTT0=
EXTT1=
EXTT2=
EXTT3=
EXTT4=
EXTT5=
EXTT6=
EXTT7=
EXTT8=
EXTT9=
EXTT10=
EXTT11=
PLAYORDER=
